
    <svg class="chart" xmlns="http://www.w3.org/2000/svg" viewBox="0 0 100 60" preserveAspectRatio="none">
      <style>
        /* <![CDATA[ */
        .bar{fill: #13aa52;}
.bar-1{fill: #13aa52;}
.bar-2{fill: #e5a00d;}
.bar-3{fill: #800;}

        .tick {
          stroke: #555;
          stroke-width: 0.2;
        }

        .tick-label {
          font-family: "Helvetica Nue", Arial, sans-serif; fill: #fff;
        }

        .bar-label {
          font-family: "Helvetica Nue", Arial, sans-serif;
          fill: white;
        }
        /* ]]> */
      </style>
      <defs>
        <linearGradient id="bgGradient" x1="0" x2="0" y1="0" y2="1">
          <stop offset="0%" stop-color="#e0e1e2" />
          <stop offset="25%" stop-color="#ffffff" stop-opacity="0" />
        </linearGradient>
      </defs>
      
      <g transform="scale(0.9, 1)">
        <g transform="scale(1, 0.9) translate(0, 2)">
        <line x1="0" x2="100" y1="60" y2="60" stroke-dasharray="0.2 0.1" class="tick" />
        <text x="4" y="60" dy="-0.3" text-anchor="end" font-size="1.4" class="tick-label">0</text>
      
        <line x1="0" x2="100" y1="52.05697794487543" y2="52.05697794487543" stroke-dasharray="0.2 0.1" class="tick" />
        <text x="4" y="52.05697794487543" dy="-0.3" text-anchor="end" font-size="1.4" class="tick-label">100</text>
      
        <line x1="0" x2="100" y1="44.113955889750855" y2="44.113955889750855" stroke-dasharray="0.2 0.1" class="tick" />
        <text x="4" y="44.113955889750855" dy="-0.3" text-anchor="end" font-size="1.4" class="tick-label">200</text>
      
        <line x1="0" x2="100" y1="36.17093383462628" y2="36.17093383462628" stroke-dasharray="0.2 0.1" class="tick" />
        <text x="4" y="36.17093383462628" dy="-0.3" text-anchor="end" font-size="1.4" class="tick-label">300</text>
      
        <line x1="0" x2="100" y1="28.22791177950171" y2="28.22791177950171" stroke-dasharray="0.2 0.1" class="tick" />
        <text x="4" y="28.22791177950171" dy="-0.3" text-anchor="end" font-size="1.4" class="tick-label">400</text>
      
        <line x1="0" x2="100" y1="20.284889724377138" y2="20.284889724377138" stroke-dasharray="0.2 0.1" class="tick" />
        <text x="4" y="20.284889724377138" dy="-0.3" text-anchor="end" font-size="1.4" class="tick-label">500</text>
      
        <line x1="0" x2="100" y1="12.341867669252558" y2="12.341867669252558" stroke-dasharray="0.2 0.1" class="tick" />
        <text x="4" y="12.341867669252558" dy="-0.3" text-anchor="end" font-size="1.4" class="tick-label">600</text>
      
        <line x1="0" x2="100" y1="4.3988456141279855" y2="4.3988456141279855" stroke-dasharray="0.2 0.1" class="tick" />
        <text x="4" y="4.3988456141279855" dy="-0.3" text-anchor="end" font-size="1.4" class="tick-label">700</text>
      </g>
        <g transform="scale(0.9, 1) translate(10, 0)">
        <text class="tick-label" x="15.517241379310349" y="60" dy="-1.3" text-anchor="middle" font-size="1.4">insert</text>
      
        <text class="tick-label" x="50.00000000000001" y="60" dy="-1.3" text-anchor="middle" font-size="1.4">find</text>
      
        <text class="tick-label" x="84.48275862068968" y="60" dy="-1.3" text-anchor="middle" font-size="1.4">update</text>
      </g>
        <g transform="scale(0.9) translate(10, 2)"><rect class="bar-1" x="1.724137931034484" y="0.5218565490216847" width="8.561236623067778" height="59.478143450978315"/><rect class="bar-2" x="11.23662306777646" y="3.5179644682146716" width="8.561236623067778" height="56.48203553178533"/><rect class="bar-3" x="20.749108204518436" y="17.884508459318482" width="8.561236623067778" height="42.11549154068152"/><rect class="bar-1" x="36.20689655172414" y="12.435595329503023" width="8.561236623067778" height="47.56440467049698"/><rect class="bar-2" x="45.719381688466115" y="13.19097672694538" width="8.561236623067778" height="46.80902327305462"/><rect class="bar-3" x="55.231866825208094" y="21.995816675050968" width="8.561236623067778" height="38.00418332494903"/><rect class="bar-1" x="70.68965517241381" y="0" width="8.561236623067778" height="60"/><rect class="bar-2" x="80.20214030915578" y="4.679234292673883" width="8.561236623067778" height="55.32076570732612"/><rect class="bar-3" x="89.71462544589775" y="12.478487648600705" width="8.561236623067778" height="47.521512351399295"/></g>
      </g>
      <g transform="translate(90, 2)">
    <rect class="bar-1" x="1" y="0" width="2" height="2"/>
    <text class="tick-label" x="3.2" y="0" dy="1.5" text-anchor="left" font-size="1.4">mongodb</text>
    
    <rect class="bar-2" x="1" y="3" width="2" height="2"/>
    <text class="tick-label" x="3.2" y="3" dy="1.5" text-anchor="left" font-size="1.4">papr</text>
    
    <rect class="bar-3" x="1" y="6" width="2" height="2"/>
    <text class="tick-label" x="3.2" y="6" dy="1.5" text-anchor="left" font-size="1.4">mongoose</text>
    </g>
    </svg>
  